<?xml version="1.0" encoding="utf-8"?>
<!-- Generator: Adobe Illustrator 26.2.1, SVG Export Plug-In . SVG Version: 6.00 Build 0)  -->
<svg version="1.1" id="Layer_1" xmlns="http://www.w3.org/2000/svg" xmlns:xlink="http://www.w3.org/1999/xlink" x="0px" y="0px"
	 viewBox="0 0 249.5 134.3" style="enable-background:new 0 0 249.5 134.3;" xml:space="preserve">
<path d="M243.4,69.9l-8.6,5c-1.2,0.7-2.6,1.1-4,1.1h-15.9c-0.9,0-1.7,0.4-2.2,1.1l-34.2,49.3c-0.5,0.7-1.4,1.1-2.2,1.1h-5.5
	c-1.9,0-3.3-1.9-2.7-3.7l10.8-44c0.6-1.8-0.8-3.7-2.7-3.7h-39.9c-0.9,0-1.7,0.4-2.3,1.1L123,91.3c-0.3,0.4-0.8,0.7-1.4,0.7h-3.8
	c-1.1,0-1.9-1-1.7-2l3.5-22c0-0.3,0-0.6,0-0.9l-3.5-22c-0.2-1.1,0.7-2,1.7-2h3.8c0.5,0,1.1,0.3,1.4,0.7l10.9,14.2
	c0.5,0.7,1.4,1.1,2.3,1.1H176c1.9,0,3.3-1.9,2.7-3.7l-10.8-44c-0.6-1.8,0.8-3.7,2.7-3.7h5.5c0.9,0,1.7,0.4,2.2,1.1l34.2,49.4
	c0.5,0.7,1.4,1.1,2.2,1.1h15.9c1.4,0,2.8,0.4,4,1.1l8.6,5C245.3,66.1,245.3,68.8,243.4,69.9z"/>
<path d="M48.6,126.9c-1.5,0.4-3,0.5-4.7,0.5c-8.5,0-15.8-5.2-18.9-12.6h9.3C36.9,120.8,42.1,125.4,48.6,126.9z"/>
<path d="M32.8,107c0,0.9,0,1.7,0.2,2.5h-9.3c-0.1-0.8-0.2-1.7-0.2-2.5c0-2,0.3-4,0.8-5.8c-2.4-1.1-4.6-2.5-6.6-4.2H27
	c2,1.7,4.2,3.1,6.6,4.2C33.1,103,32.8,105,32.8,107z"/>
<path d="M22.2,91.6h-9.3c-2.6-3.7-4.3-7.9-4.9-12.6h9.3C18,83.7,19.7,88,22.2,91.6z"/>
<polygon points="172,81.9 169.6,91.6 130.3,91.6 137.7,81.9 "/>
<path d="M21,61.2c-2.2,3.7-3.6,8-3.9,12.6H7.9c0.3-4.6,1.6-8.8,3.8-12.6H21z"/>
<polygon points="172,53 137.7,53 130.3,43.3 169.6,43.3 "/>
<path d="M26.9,54.1c-0.6,0.6-1.2,1.1-1.8,1.7h-9.3c0.6-0.6,1.2-1.2,1.8-1.7c-0.7-2.2-1-4.5-1-6.9c0-1.4,0.1-2.7,0.3-4h9.3
	c-0.2,1.3-0.3,2.6-0.3,4C25.9,49.6,26.3,51.9,26.9,54.1z"/>
<path d="M40.1,25.4c-5.6,2.5-10,7-12.4,12.6h-9.3c2.4-5.6,6.8-10.1,12.4-12.6H40.1z"/>
<path d="M53.2,8.2c-5.5,1.7-9.7,6.2-10.9,11.9H33c1.5-7.2,7.9-12.6,15.5-12.6C50.2,7.5,51.7,7.7,53.2,8.2z"/>
<g>
	<path d="M27.8,37.9h-9.3c2.4-5.6,6.8-10.1,12.4-12.6h9.3C34.6,27.8,30.1,32.3,27.8,37.9z"/>
	<path d="M15.8,55.8c0.6-0.6,1.2-1.2,1.8-1.7c-0.7-2.2-1-4.5-1-6.9c0-1.4,0.1-2.7,0.3-4h9.3c-0.2,1.3-0.3,2.6-0.3,4
		c0,2.4,0.3,4.7,1,6.9c-0.6,0.6-1.2,1.1-1.8,1.7H15.8z"/>
	<path d="M17.2,73.7H7.9c0.3-4.6,1.6-8.8,3.8-12.6H21C18.8,64.9,17.5,69.2,17.2,73.7z"/>
	<path d="M22.2,91.6h-9.3c-2.6-3.7-4.3-7.9-4.9-12.6h9.3C18,83.7,19.7,88,22.2,91.6z"/>
	<path d="M33,109.5h-9.3c-0.1-0.8-0.2-1.7-0.2-2.5c0-2,0.3-4,0.8-5.8c-2.4-1.1-4.6-2.5-6.6-4.2H27c2,1.7,4.2,3.1,6.6,4.2
		c-0.5,1.8-0.8,3.8-0.8,5.8C32.8,107.8,32.8,108.7,33,109.5z"/>
	<path d="M48.6,126.9c-1.5,0.4-3,0.5-4.7,0.5c-8.5,0-15.8-5.2-18.9-12.6h9.3C36.9,120.8,42.1,125.4,48.6,126.9z"/>
	<path d="M42.3,20H33c1.5-7.2,7.9-12.6,15.5-12.6c1.6,0,3.2,0.2,4.7,0.7C47.7,9.8,43.5,14.4,42.3,20z"/>
	<path d="M162.3,127.4H60.7c-1.3,0-2.5-0.1-3.8-0.3c-1.6-0.3-3.2-0.8-4.6-1.5c-4.7-2.1-8.5-6-10.5-10.8H164l-1.8,7.3
		C161.7,123.9,161.7,125.7,162.3,127.4z"/>
	<path d="M110.2,91.6H29.7c-2.6-3.7-4.3-7.9-4.8-12.6h86.9l-1.6,10C110,89.9,110,90.8,110.2,91.6z"/>
	<path d="M111.7,55.8H32.6c0.6-0.6,1.2-1.2,1.8-1.7c-0.7-2.2-1-4.5-1-6.9c0-1.4,0.1-2.7,0.3-4h76.5c-0.2,0.9-0.2,1.8,0,2.7
		L111.7,55.8z"/>
	<path d="M164,20H49.8c0.9-4.3,3.5-7.9,7.1-10.2c1.4-0.9,3-1.6,4.6-2c1.2-0.3,2.5-0.4,3.8-0.4h97c-0.6,1.7-0.6,3.6-0.1,5.3L164,20z"
		/>
	<path d="M168.3,37.9h-42.9c-1.2-0.7-2.5-1-3.8-1h-3.8c-1.4,0-2.7,0.4-3.8,1H35.3c2.4-5.6,6.8-10.1,12.4-12.6h117.6L168.3,37.9z"/>
	<path d="M113.6,67.4l-1,6.3H24.7c0.3-4.6,1.6-8.8,3.9-12.6h84L113.6,67.4z"/>
	<path d="M168.3,96.9l-3.1,12.6H40.5c-0.1-0.8-0.2-1.7-0.2-2.5c0-2,0.3-4,0.8-5.8c-2.4-1.1-4.6-2.5-6.6-4.2H114c1.1,0.7,2.5,1,3.8,1
		h3.8c1.4,0,2.7-0.4,3.8-1H168.3z"/>
</g>
</svg>
